<svg width="112" height="24" viewBox="0 0 112 24" fill="none" xmlns="http://www.w3.org/2000/svg">
<path d="M11.648 23.576C9.472 23.576 7.552 23.128 5.888 22.232C4.24533 21.3147 2.95467 20.024 2.016 18.36C1.09867 16.6747 0.64 14.6907 0.64 12.408C0.64 10.1893 1.09867 8.248 2.016 6.584C2.93333 4.92 4.256 3.62933 5.984 2.712C7.73333 1.77333 9.84533 1.304 12.32 1.304C13.4507 1.304 14.496 1.432 15.456 1.688C16.4373 1.944 17.3653 2.31733 18.24 2.808L18.368 7.288H18.048L16.256 3.96C15.9787 3.42667 15.7227 3.04267 15.488 2.808C15.2533 2.57333 14.9547 2.392 14.592 2.264C14.2507 2.15733 13.9307 2.08267 13.632 2.04C13.3547 1.976 12.9813 1.944 12.512 1.944C11.1893 1.944 10.016 2.296 8.992 3C7.98933 3.704 7.21067 4.824 6.656 6.36C6.10133 7.896 5.824 9.912 5.824 12.408C5.824 14.8827 6.08 16.8987 6.592 18.456C7.12533 20.0133 7.872 21.1547 8.832 21.88C9.792 22.584 10.9013 22.936 12.16 22.936C12.352 22.936 12.5333 22.9253 12.704 22.904C12.896 22.8613 13.0773 22.8187 13.248 22.776C13.6533 22.712 13.92 22.5413 14.048 22.264C14.176 21.9867 14.24 21.656 14.24 21.272V14.936C14.24 14.104 13.8133 13.592 12.96 13.4L11.488 13.016V12.696H20.512V13.016L20.064 13.144C19.2533 13.4 18.848 13.9333 18.848 14.744V21.688C17.7387 22.3067 16.608 22.776 15.456 23.096C14.3253 23.416 13.056 23.576 11.648 23.576ZM29.736 23.48C28.1147 23.48 26.7067 23.1493 25.512 22.488C24.3173 21.8053 23.3893 20.8453 22.728 19.608C22.088 18.3707 21.768 16.92 21.768 15.256C21.768 13.592 22.1093 12.152 22.792 10.936C23.496 9.72 24.4453 8.78133 25.64 8.12C26.856 7.45867 28.2213 7.128 29.736 7.128C31.2507 7.128 32.6053 7.45867 33.8 8.12C34.9947 8.76 35.9333 9.688 36.616 10.904C37.32 12.12 37.672 13.5707 37.672 15.256C37.672 16.9413 37.3413 18.4027 36.68 19.64C36.04 20.856 35.1227 21.8053 33.928 22.488C32.7547 23.1493 31.3573 23.48 29.736 23.48ZM29.736 22.84C30.4827 22.84 31.08 22.6267 31.528 22.2C31.976 21.7733 32.296 21.016 32.488 19.928C32.7013 18.84 32.808 17.304 32.808 15.32C32.808 13.3147 32.7013 11.768 32.488 10.68C32.296 9.592 31.976 8.83467 31.528 8.408C31.08 7.98133 30.4827 7.768 29.736 7.768C28.9893 7.768 28.3813 7.98133 27.912 8.408C27.464 8.83467 27.1333 9.592 26.92 10.68C26.728 11.768 26.632 13.3147 26.632 15.32C26.632 17.304 26.728 18.84 26.92 19.928C27.1333 21.016 27.464 21.7733 27.912 22.2C28.3813 22.6267 28.9893 22.84 29.736 22.84ZM38.5165 23V22.68L39.1565 22.456C39.5832 22.328 39.8605 22.136 39.9885 21.88C40.1378 21.624 40.2125 21.2827 40.2125 20.856V4.088C40.2125 3.66133 40.1378 3.32 39.9885 3.064C39.8392 2.808 39.5512 2.60533 39.1245 2.456L38.5165 2.2V1.88H46.2925C49.4712 1.88 51.7645 2.46667 53.1725 3.64C54.6018 4.792 55.3165 6.31733 55.3165 8.216C55.3165 9.432 55.0178 10.552 54.4205 11.576C53.8445 12.5787 52.8845 13.3787 51.5405 13.976C50.1965 14.5733 48.3832 14.872 46.1005 14.872H45.0125V20.76C45.0125 21.592 45.4285 22.136 46.2605 22.392L47.2205 22.68V23H38.5165ZM45.0125 14.232H46.2285C47.2738 14.232 48.1272 14.0613 48.7885 13.72C49.4498 13.3787 49.9405 12.7813 50.2605 11.928C50.5805 11.0747 50.7405 9.89067 50.7405 8.376C50.7405 6.84 50.5592 5.64533 50.1965 4.792C49.8552 3.93867 49.3432 3.352 48.6605 3.032C47.9778 2.69067 47.1245 2.52 46.1005 2.52H45.0125V14.232ZM60.3863 5.464C59.6609 5.464 59.0423 5.24 58.5303 4.792C58.0396 4.32267 57.7943 3.736 57.7943 3.032C57.7943 2.30667 58.0396 1.72 58.5303 1.272C59.0423 0.823999 59.6609 0.599998 60.3863 0.599998C61.1116 0.599998 61.7196 0.823999 62.2103 1.272C62.7009 1.72 62.9463 2.30667 62.9463 3.032C62.9463 3.736 62.7009 4.32267 62.2103 4.792C61.7196 5.24 61.1116 5.464 60.3863 5.464ZM56.6103 23V22.68L57.0583 22.552C57.4849 22.424 57.7729 22.232 57.9223 21.976C58.0929 21.72 58.1783 21.3787 58.1783 20.952V10.936C58.1783 10.488 58.0929 10.1573 57.9223 9.944C57.7729 9.70933 57.4849 9.54933 57.0583 9.464L56.6103 9.368V9.048L62.4663 7.16L62.7863 7.48L62.6903 12.024V20.984C62.6903 21.4107 62.7649 21.752 62.9143 22.008C63.0849 22.264 63.3729 22.456 63.7783 22.584L64.0983 22.68V23H56.6103ZM65.611 23V22.488L74.347 8.248H69.515C68.9603 8.248 68.523 8.39733 68.203 8.696C67.883 8.99467 67.5843 9.38933 67.307 9.88L66.155 12.024H65.835L66.059 7.608H78.859V8.056L70.315 22.36H75.339C76.0217 22.36 76.523 22.2 76.843 21.88C77.163 21.56 77.4617 21.1227 77.739 20.568L78.859 18.2H79.179L78.891 23H65.611ZM80.486 23V22.488L89.222 8.248H84.39C83.8353 8.248 83.398 8.39733 83.078 8.696C82.758 8.99467 82.4593 9.38933 82.182 9.88L81.03 12.024H80.71L80.934 7.608H93.734V8.056L85.19 22.36H90.214C90.8967 22.36 91.398 22.2 91.718 21.88C92.038 21.56 92.3367 21.1227 92.614 20.568L93.734 18.2H94.054L93.766 23H80.486ZM99.937 23.48C98.6997 23.48 97.6543 23.128 96.801 22.424C95.969 21.72 95.553 20.7067 95.553 19.384C95.553 18.3813 96.065 17.464 97.089 16.632C98.113 15.7787 99.7237 15.1387 101.921 14.712C102.262 14.648 102.646 14.584 103.073 14.52C103.5 14.4347 103.948 14.3493 104.417 14.264V11.736C104.417 10.2853 104.236 9.272 103.873 8.696C103.532 8.09867 102.988 7.8 102.241 7.8C101.729 7.8 101.324 7.97067 101.025 8.312C100.726 8.632 100.534 9.19733 100.449 10.008L100.385 10.36C100.342 11.2773 100.118 11.9493 99.713 12.376C99.3077 12.8027 98.8063 13.016 98.209 13.016C97.6543 13.016 97.1957 12.8453 96.833 12.504C96.4703 12.1627 96.289 11.704 96.289 11.128C96.289 10.2533 96.5877 9.51733 97.185 8.92C97.8037 8.32267 98.6143 7.87467 99.617 7.576C100.62 7.27733 101.708 7.128 102.881 7.128C104.78 7.128 106.241 7.59733 107.265 8.536C108.31 9.45333 108.833 10.9573 108.833 13.048V20.12C108.833 21.08 109.281 21.56 110.177 21.56H110.881L111.169 21.816C110.764 22.328 110.316 22.7227 109.825 23C109.356 23.2773 108.684 23.416 107.809 23.416C106.87 23.416 106.124 23.2027 105.569 22.776C105.036 22.328 104.684 21.7413 104.513 21.016C103.873 21.6987 103.212 22.2853 102.529 22.776C101.868 23.2453 101.004 23.48 99.937 23.48ZM101.889 21.528C102.316 21.528 102.71 21.432 103.073 21.24C103.457 21.0267 103.905 20.7067 104.417 20.28V14.904C104.204 14.9467 103.99 14.9893 103.777 15.032C103.564 15.0747 103.318 15.1173 103.041 15.16C102.06 15.416 101.27 15.8533 100.673 16.472C100.097 17.0693 99.809 17.88 99.809 18.904C99.809 19.7787 100.012 20.44 100.417 20.888C100.822 21.3147 101.313 21.528 101.889 21.528Z" fill="#C23645"/>
</svg>
